{"glyphs":{"0":{"ha":1097,"x_min":76,"x_max":1021,"o":"m 549 -14 q 349 22 436 -14 q 201 124 261 58 q 108 281 140 189 q 76 486 76 374 q 108 691 76 599 q 201 849 140 783 q 349 950 261 914 q 549 986 436 986 q 749 950 661 986 q 897 849 836 914 q 989 691 957 783 q 1021 486 1021 599 q 989 281 1021 374 q 897 124 957 189 q 749 22 836 58 q 549 -14 661 -14 m 549 214 q 637 234 600 214 q 697 291 674 254 q 732 378 721 328 q 743 486 743 428 q 732 594 743 544 q 697 681 721 644 q 637 738 674 718 q 549 758 600 758 q 460 738 497 758 q 400 681 424 718 q 365 594 376 644 q 354 486 354 544 q 365 378 354 428 q 400 291 376 328 q 460 234 424 254 q 549 214 497 214 z "},"1":{"ha":613,"x_min":42,"x_max":508,"o":"m 244 615 l 42 615 l 42 775 l 289 972 l 508 972 l 508 0 l 244 0 l 244 615 z "},"2":{"ha":1031,"x_min":76,"x_max":947,"o":"m 76 167 q 122 310 76 254 q 234 402 167 365 q 380 464 301 439 q 526 515 458 489 q 638 574 593 540 q 683 661 683 607 q 645 738 683 707 q 525 769 607 769 q 449 758 479 769 q 400 728 418 747 q 374 685 382 710 q 367 636 367 661 l 367 590 l 103 590 l 103 636 q 211 902 103 818 q 525 986 319 986 q 838 903 728 986 q 947 661 947 821 q 906 512 947 572 q 801 410 864 451 q 664 342 738 368 q 527 294 590 315 q 422 255 464 274 q 381 211 381 236 l 947 211 l 947 0 l 76 0 l 76 167 z "},"3":{"ha":988,"x_min":56,"x_max":925,"o":"m 490 -14 q 164 71 272 -14 q 56 318 56 156 l 56 340 l 319 340 l 319 318 q 333 263 319 285 q 369 227 346 240 q 423 208 392 214 q 490 203 454 203 q 559 208 528 203 q 613 228 590 214 q 649 263 636 242 q 661 318 661 285 q 648 374 661 351 q 612 409 635 396 q 558 427 589 422 q 490 432 526 432 l 183 432 l 183 582 l 469 732 l 582 761 l 582 788 l 465 761 l 94 761 l 94 972 l 874 972 l 874 761 l 606 633 l 493 604 l 493 578 l 615 606 q 842 529 758 606 q 925 317 925 453 q 816 71 925 156 q 490 -14 707 -14 z "},"4":{"ha":1026,"x_min":35,"x_max":971,"o":"m 579 192 l 35 192 l 35 401 l 494 972 l 843 972 l 843 401 l 971 401 l 971 192 l 843 192 l 843 0 l 579 0 l 579 192 m 582 399 l 582 692 l 621 804 l 594 804 l 540 697 l 304 406 l 304 399 l 582 399 z "},"5":{"ha":1007,"x_min":97,"x_max":944,"o":"m 521 -14 q 203 69 310 -14 q 97 299 97 151 l 361 299 q 367 273 361 289 q 389 241 372 257 q 437 214 406 225 q 521 203 468 203 q 634 235 588 203 q 681 331 681 268 q 635 428 681 397 q 519 458 590 458 q 436 448 467 458 q 389 426 406 438 q 361 394 369 411 l 97 394 l 97 972 l 878 972 l 878 761 l 361 761 l 361 601 l 367 601 q 414 626 385 615 q 479 644 439 636 q 581 653 519 653 q 724 633 657 653 q 839 574 790 614 q 916 474 888 535 q 944 331 944 414 q 837 74 944 163 q 521 -14 729 -14 z "},"6":{"ha":1042,"x_min":76,"x_max":972,"o":"m 529 -14 q 322 22 408 -14 q 182 123 236 58 q 102 278 128 188 q 76 476 76 368 l 76 486 q 103 685 76 593 q 184 843 129 776 q 323 948 239 910 q 522 986 407 986 q 709 960 631 986 q 838 890 788 933 q 913 791 889 847 q 938 676 938 735 l 657 676 q 653 695 657 681 q 634 726 649 710 q 593 756 619 743 q 524 769 567 769 q 451 753 483 769 q 398 708 419 736 q 365 642 376 681 q 357 560 354 603 l 363 560 q 411 594 381 579 q 478 618 438 607 q 582 629 519 629 q 744 608 672 629 q 867 546 817 586 q 945 449 918 506 q 972 322 972 393 q 942 181 972 243 q 853 75 911 118 q 714 9 796 32 q 529 -14 632 -14 m 532 203 q 651 233 607 203 q 694 318 694 263 q 651 403 694 374 q 532 433 607 433 q 413 403 457 433 q 369 318 369 374 q 413 233 369 263 q 532 203 457 203 z "},"7":{"ha":879,"x_min":42,"x_max":838,"o":"m 549 750 l 42 750 l 42 972 l 838 972 l 838 750 l 436 0 l 149 0 l 549 750 z "},"8":{"ha":1031,"x_min":69,"x_max":961,"o":"m 515 -14 q 187 53 304 -14 q 69 267 69 121 q 104 390 69 343 q 181 463 139 436 q 293 506 229 493 l 293 517 q 197 558 239 531 q 131 623 161 582 q 101 728 101 664 q 126 828 101 781 q 203 910 151 875 q 332 966 254 946 q 515 986 410 986 q 699 966 621 986 q 828 910 776 946 q 904 828 879 875 q 929 728 929 781 q 899 623 929 664 q 833 558 869 582 q 738 517 790 531 l 738 506 q 849 463 800 493 q 926 390 890 436 q 961 267 961 343 q 931 140 961 193 q 843 53 900 88 q 703 3 786 19 q 515 -14 621 -14 m 515 189 q 645 222 607 189 q 683 297 683 254 q 645 373 683 340 q 515 406 607 406 q 385 373 424 406 q 347 297 347 340 q 385 222 347 254 q 515 189 424 189 m 515 589 q 617 616 582 589 q 651 686 651 643 q 617 756 651 729 q 515 783 582 783 q 414 756 449 783 q 379 686 379 729 q 414 616 379 643 q 515 589 449 589 z "},"9":{"ha":1042,"x_min":69,"x_max":965,"o":"m 506 -14 q 314 13 394 -14 q 181 82 233 39 q 102 181 128 125 q 76 296 76 238 l 357 296 q 363 277 357 292 q 384 246 368 263 q 429 216 400 229 q 504 203 458 203 q 585 219 550 203 q 642 264 619 236 q 676 330 665 292 q 685 413 686 368 l 679 413 q 631 378 661 393 q 563 353 604 364 q 460 343 522 343 q 297 365 369 343 q 174 426 225 386 q 97 523 124 467 q 69 650 69 579 q 100 792 69 729 q 188 897 131 854 q 327 963 244 940 q 513 986 410 986 q 719 950 633 986 q 860 849 806 914 q 940 694 914 785 q 965 496 965 604 l 965 486 q 939 288 965 379 q 856 129 913 196 q 713 24 800 63 q 506 -14 626 -14 m 510 539 q 628 569 585 539 q 672 654 672 599 q 628 740 672 710 q 510 769 585 769 q 391 740 435 769 q 347 654 347 710 q 391 569 347 599 q 510 539 435 539 z "}," ":{"ha":347,"x_min":0,"x_max":0,"o":""},"!":{"ha":450,"x_min":90,"x_max":360,"o":"m 225 -14 q 127 19 164 -14 q 90 111 90 53 q 127 203 90 169 q 225 236 164 236 q 323 203 286 236 q 360 111 360 169 q 323 19 360 53 q 225 -14 286 -14 m 97 785 l 97 972 l 353 972 l 353 785 l 318 319 l 132 319 l 97 785 z "},"\"":{"ha":683,"x_min":83,"x_max":600,"o":"m 83 858 l 83 972 l 292 972 l 292 858 l 267 569 l 108 569 l 83 858 m 392 858 l 392 972 l 600 972 l 600 858 l 575 569 l 417 569 l 392 858 z "},"#":{"ha":1025,"x_min":28,"x_max":997,"o":"m 165 217 l 28 217 l 28 378 l 204 378 l 257 594 l 132 594 l 132 756 l 296 756 l 349 972 l 539 972 l 486 756 l 669 756 l 722 972 l 913 972 l 860 756 l 997 756 l 997 594 l 821 594 l 768 378 l 904 378 l 904 217 l 729 217 l 676 0 l 486 0 l 539 217 l 356 217 l 303 0 l 113 0 l 165 217 m 579 375 l 633 597 l 446 597 l 392 375 l 579 375 z "},"$":{"ha":989,"x_min":63,"x_max":926,"o":"m 363 -3 q 213 43 279 7 q 158 81 185 58 q 110 134 131 103 q 76 206 89 165 q 63 299 63 246 l 63 338 l 340 338 l 340 297 q 382 214 340 236 q 494 192 424 192 q 606 216 563 192 q 649 289 649 240 q 624 338 649 321 q 560 365 600 356 q 470 381 521 375 q 367 398 419 388 q 263 426 314 408 q 173 478 213 444 q 109 563 133 511 q 85 692 85 614 q 97 774 85 738 q 128 840 108 811 q 172 889 147 868 q 224 925 197 910 q 363 975 285 961 l 363 1139 l 618 1139 l 618 974 q 750 926 692 961 q 799 890 775 911 q 841 840 822 869 q 871 774 860 811 q 882 689 882 736 l 882 664 l 604 664 l 604 689 q 578 752 604 724 q 483 781 553 781 q 389 755 415 781 q 363 694 363 729 q 387 644 363 663 q 451 617 411 626 q 541 601 490 607 q 644 584 592 594 q 748 556 697 574 q 838 506 799 539 q 902 422 878 474 q 926 292 926 369 q 913 201 926 240 q 878 131 900 161 q 828 78 856 100 q 772 42 801 57 q 618 -4 704 6 l 618 -167 l 363 -167 l 363 -3 z "},"%":{"ha":1211,"x_min":42,"x_max":1169,"o":"m 833 972 l 1044 972 l 378 0 l 167 0 l 833 972 m 926 -14 q 749 50 814 -14 q 683 232 683 114 q 749 414 683 350 q 926 478 814 478 q 1104 414 1039 478 q 1169 232 1169 350 q 1104 50 1169 114 q 926 -14 1039 -14 m 926 131 q 974 162 961 131 q 986 232 986 193 q 974 302 986 271 q 926 333 961 333 q 879 302 892 333 q 867 232 867 271 q 879 162 867 193 q 926 131 892 131 m 285 494 q 107 558 172 494 q 42 740 42 622 q 107 922 42 858 q 285 986 172 986 q 463 922 397 986 q 528 740 528 858 q 463 558 528 622 q 285 494 397 494 m 285 639 q 332 670 319 639 q 344 740 344 701 q 332 810 344 779 q 285 842 319 842 q 238 810 250 842 q 225 740 225 779 q 238 670 225 701 q 285 639 250 639 z "},"&":{"ha":964,"x_min":69,"x_max":985,"o":"m 456 -14 q 283 9 356 -14 q 163 72 210 32 q 92 168 115 113 q 69 289 69 224 q 78 373 69 336 q 103 439 88 410 q 137 490 118 468 q 176 528 156 513 q 283 581 222 564 l 283 589 l 121 764 l 121 972 l 831 972 l 831 767 l 418 767 l 418 757 l 619 529 l 619 651 l 819 651 l 819 313 l 985 128 l 840 -14 l 729 103 q 665 44 704 69 q 580 4 632 22 q 456 -14 528 -14 m 463 208 q 522 216 499 208 q 560 235 546 224 q 585 263 575 247 l 440 418 q 386 401 410 414 q 350 369 367 390 q 333 310 333 347 q 369 233 333 258 q 463 208 404 208 z "},"'":{"ha":375,"x_min":83,"x_max":292,"o":"m 83 858 l 83 972 l 292 972 l 292 858 l 267 569 l 108 569 l 83 858 z "},"(":{"ha":653,"x_min":76,"x_max":632,"o":"m 632 -347 q 416 -298 517 -347 q 240 -154 315 -249 q 120 77 164 -60 q 76 389 76 214 q 120 701 76 564 q 240 932 164 838 q 416 1076 315 1026 q 632 1125 517 1125 l 632 928 q 516 890 571 928 q 419 781 461 851 q 351 610 376 710 q 326 389 326 511 q 351 167 326 267 q 419 -3 376 68 q 516 -112 461 -74 q 632 -150 571 -150 l 632 -347 l 632 -347 z "},")":{"ha":653,"x_min":21,"x_max":576,"o":"m 21 -150 q 136 -112 81 -150 q 234 -3 192 -74 q 301 167 276 68 q 326 389 326 267 q 301 610 326 511 q 234 781 276 710 q 136 890 192 851 q 21 928 81 928 l 21 1125 q 236 1076 135 1125 q 413 932 338 1026 q 533 701 489 838 q 576 389 576 564 q 533 77 576 214 q 413 -154 489 -60 q 236 -298 338 -249 q 21 -347 135 -347 l 21 -150 z "},"+":{"ha":733,"x_min":69,"x_max":664,"o":"m 283 294 l 69 294 l 69 456 l 283 456 l 283 667 l 450 667 l 450 456 l 664 456 l 664 294 l 450 294 l 450 83 l 283 83 l 283 294 z "},",":{"ha":372,"x_min":49,"x_max":324,"o":"m 172 -83 q 163 -33 172 -50 q 140 -10 154 -17 q 110 2 126 -3 q 81 17 94 7 q 58 48 67 26 q 49 113 49 69 q 85 204 49 171 q 182 238 121 238 q 285 200 249 238 q 324 79 322 163 q 312 -32 324 17 q 279 -112 300 -81 q 231 -161 258 -144 q 172 -178 203 -178 l 172 -83 z "},"-":{"ha":449,"x_min":49,"x_max":400,"o":"m 49 368 l 400 514 l 400 315 l 49 169 l 49 368 z "},".":{"ha":372,"x_min":49,"x_max":324,"o":"m 186 -14 q 86 20 124 -14 q 49 115 49 54 q 86 210 49 176 q 186 244 124 244 q 286 210 249 244 q 324 115 324 176 q 286 20 324 54 q 186 -14 249 -14 z "},"/":{"ha":731,"x_min":0,"x_max":731,"o":"m 529 972 l 731 972 l 201 -167 l 0 -167 l 529 972 z "},":":{"ha":372,"x_min":49,"x_max":324,"o":"m 186 -14 q 86 20 124 -14 q 49 115 49 54 q 86 210 49 176 q 186 244 124 244 q 286 210 249 244 q 324 115 324 176 q 286 20 324 54 q 186 -14 249 -14 m 186 450 q 86 484 124 450 q 49 579 49 518 q 86 674 49 640 q 186 708 124 708 q 286 674 249 708 q 324 579 324 640 q 286 484 324 518 q 186 450 249 450 z "},";":{"ha":372,"x_min":49,"x_max":324,"o":"m 172 -83 q 163 -33 172 -50 q 140 -10 154 -17 q 110 2 126 -3 q 81 17 94 7 q 58 48 67 26 q 49 113 49 69 q 85 204 49 171 q 182 238 121 238 q 285 200 249 238 q 324 79 322 163 q 312 -32 324 17 q 279 -112 300 -81 q 231 -161 258 -144 q 172 -178 203 -178 l 172 -83 m 186 450 q 86 484 124 450 q 49 579 49 518 q 86 674 49 640 q 186 708 124 708 q 286 674 249 708 q 324 579 324 640 q 286 484 324 518 q 186 450 249 450 z "},"=":{"ha":732,"x_min":69,"x_max":663,"o":"m 69 317 l 663 317 l 663 156 l 69 156 l 69 317 m 69 582 l 663 582 l 663 421 l 69 421 l 69 582 z "},"?":{"ha":911,"x_min":42,"x_max":869,"o":"m 433 -14 q 335 19 372 -14 q 299 111 299 53 q 335 203 299 169 q 433 236 372 236 q 531 203 494 236 q 568 111 568 169 q 531 19 568 53 q 433 -14 494 -14 m 306 417 q 328 505 306 472 q 385 558 351 538 q 460 590 419 578 q 534 615 500 601 q 591 647 568 628 q 614 703 614 667 q 576 760 614 740 q 456 781 539 781 q 339 758 381 781 q 297 697 297 735 l 297 660 l 42 660 l 42 697 q 146 909 42 832 q 456 986 250 986 q 769 910 668 986 q 869 703 869 835 q 847 581 869 626 q 790 510 824 536 q 715 470 756 483 q 641 444 675 457 q 584 412 607 431 q 561 356 561 393 l 561 319 l 306 319 l 306 417 z "},"@":{"ha":1386,"x_min":76,"x_max":1324,"o":"m 657 -244 q 418 -200 525 -244 q 235 -76 311 -156 q 117 116 158 4 q 76 363 76 228 q 122 611 76 499 q 251 803 168 724 q 447 928 333 883 q 693 972 560 972 q 968 926 850 972 q 1165 801 1086 881 q 1284 615 1244 722 q 1324 386 1324 508 q 1303 238 1324 300 q 1250 136 1283 176 q 1172 76 1217 96 q 1081 57 1128 57 q 990 74 1026 57 q 931 110 954 90 q 889 163 904 133 l 882 163 q 838 110 865 133 q 774 74 814 90 q 675 57 733 57 q 478 138 550 57 q 406 356 406 218 q 424 478 406 424 q 472 572 442 533 q 544 631 503 611 q 631 651 585 651 q 710 637 679 651 q 757 606 740 622 q 786 561 776 586 l 796 561 l 796 640 l 989 640 l 989 322 q 1008 256 989 279 q 1060 232 1026 232 q 1093 245 1081 232 q 1112 280 1106 258 q 1119 329 1118 301 q 1121 386 1121 357 q 1013 688 1121 578 q 693 797 904 797 q 515 764 593 797 q 385 672 438 731 q 306 535 333 614 q 279 364 279 456 q 301 201 279 279 q 369 63 324 124 q 487 -33 415 3 q 657 -69 558 -69 q 749 -60 710 -69 q 814 -39 788 -50 q 865 -7 844 -25 q 886 -34 871 -14 q 918 -77 901 -54 q 950 -120 935 -100 q 971 -147 965 -140 q 890 -196 936 -175 q 792 -230 850 -215 q 657 -244 733 -244 m 697 232 q 765 265 743 232 q 786 354 786 297 q 765 442 786 408 q 697 476 744 476 q 630 443 651 476 q 608 354 608 410 q 629 266 608 300 q 697 232 650 232 z "},"A":{"ha":1100,"x_min":-7,"x_max":1107,"o":"m 382 972 l 718 972 l 1107 0 l 831 0 l 771 149 l 329 149 l 269 0 l -7 0 l 382 972 m 697 349 l 558 715 l 542 715 l 403 349 l 697 349 z "},"B":{"ha":1035,"x_min":104,"x_max":972,"o":"m 104 972 l 608 972 q 851 905 776 972 q 926 722 926 838 q 903 620 926 660 q 851 557 879 581 q 776 518 818 531 l 776 506 q 874 464 831 493 q 941 393 910 439 q 972 271 972 347 q 890 65 972 129 q 621 0 807 0 l 104 0 l 104 972 m 575 201 q 667 231 639 201 q 694 304 694 260 q 667 378 694 349 q 575 407 639 407 l 368 407 l 368 201 l 575 201 m 544 585 q 626 612 603 585 q 649 678 649 639 q 626 744 649 717 q 544 771 603 771 l 368 771 l 368 585 l 544 585 z "},"C":{"ha":1151,"x_min":76,"x_max":1082,"o":"m 585 -14 q 376 20 469 -14 q 215 119 282 54 q 113 276 149 183 q 76 486 76 368 q 113 697 76 604 q 215 853 149 789 q 376 952 282 918 q 585 986 469 986 q 789 956 697 986 q 946 872 881 926 q 1047 744 1011 818 q 1082 583 1082 671 l 804 583 q 772 671 797 632 q 706 731 750 703 q 585 758 663 758 q 483 737 526 758 q 410 678 439 715 q 368 592 382 642 q 354 486 354 543 q 368 380 354 429 q 410 294 382 331 q 483 235 439 257 q 585 214 526 214 q 706 241 663 214 q 772 301 750 268 q 804 389 797 339 l 1082 389 q 1047 228 1082 301 q 946 100 1011 154 q 789 16 881 46 q 585 -14 697 -14 z "},"D":{"ha":1103,"x_min":104,"x_max":1026,"o":"m 104 972 l 514 972 q 731 940 635 972 q 892 847 826 908 q 992 694 957 785 q 1026 486 1026 604 q 892 125 1026 250 q 514 0 757 0 l 104 0 l 104 972 m 514 222 q 619 242 575 222 q 692 298 664 263 q 735 381 721 333 q 749 486 749 429 q 735 591 749 543 q 692 674 721 639 q 619 730 664 710 q 514 750 575 750 l 368 750 l 368 222 l 514 222 z "},"E":{"ha":1011,"x_min":104,"x_max":935,"o":"m 104 972 l 935 972 l 935 761 l 368 761 l 368 597 l 840 597 l 840 397 l 368 397 l 368 211 l 935 211 l 935 0 l 104 0 l 104 972 z "},"F":{"ha":957,"x_min":104,"x_max":915,"o":"m 104 972 l 915 972 l 915 761 l 368 761 l 368 538 l 818 538 l 818 338 l 368 338 l 368 0 l 104 0 l 104 972 z "},"G":{"ha":1182,"x_min":76,"x_max":1085,"o":"m 571 -14 q 363 20 454 -14 q 208 118 271 54 q 110 275 144 182 q 76 485 76 368 q 112 696 76 603 q 213 853 147 789 q 374 952 279 918 q 585 986 468 986 q 738 970 671 986 q 856 928 804 954 q 943 867 907 901 q 1004 799 979 833 q 1081 611 1063 715 l 800 611 q 758 685 786 651 q 693 735 735 713 q 585 758 651 758 q 480 737 524 758 q 408 678 436 715 q 367 592 381 642 q 354 486 354 543 q 365 383 354 432 q 403 296 376 333 q 473 236 429 258 q 582 214 517 214 q 685 231 644 214 q 749 267 725 247 q 792 321 776 290 l 792 324 l 578 324 l 578 507 l 1085 507 l 1085 0 l 871 0 l 871 118 l 863 118 q 794 51 836 81 q 703 6 758 26 q 571 -14 649 -14 z "},"H":{"ha":1157,"x_min":104,"x_max":1053,"o":"m 104 972 l 368 972 l 368 622 l 789 622 l 789 972 l 1053 972 l 1053 0 l 789 0 l 789 400 l 368 400 l 368 0 l 104 0 l 104 972 z "},"I":{"ha":878,"x_min":76,"x_max":801,"o":"m 76 211 l 307 211 l 307 761 l 76 761 l 76 972 l 801 972 l 801 761 l 571 761 l 571 211 l 801 211 l 801 0 l 76 0 l 76 211 z "},"J":{"ha":935,"x_min":49,"x_max":838,"o":"m 443 -14 q 149 76 249 -14 q 49 353 49 167 l 49 404 l 313 404 l 313 353 q 319 301 313 326 q 342 257 326 276 q 382 226 357 238 q 443 214 407 214 q 504 226 479 214 q 544 257 529 238 q 567 301 560 276 q 574 353 574 326 l 574 750 l 229 750 l 229 972 l 838 972 l 838 353 q 738 76 838 167 q 443 -14 638 -14 z "},"K":{"ha":1032,"x_min":104,"x_max":1039,"o":"m 104 972 l 368 972 l 368 510 l 715 972 l 1021 972 l 654 493 l 1039 0 l 733 0 l 368 475 l 368 0 l 104 0 l 104 972 z "},"L":{"ha":940,"x_min":104,"x_max":913,"o":"m 104 972 l 368 972 l 368 222 l 913 222 l 913 0 l 104 0 l 104 972 z "},"M":{"ha":1361,"x_min":104,"x_max":1257,"o":"m 104 972 l 524 972 l 658 532 l 669 403 l 692 403 l 703 532 l 838 972 l 1257 972 l 1257 0 l 993 0 l 993 613 l 1031 744 l 1004 744 l 958 613 l 835 219 l 526 219 l 403 613 l 357 744 l 331 744 l 368 613 l 368 0 l 104 0 l 104 972 z "},"N":{"ha":1183,"x_min":104,"x_max":1079,"o":"m 104 972 l 531 972 l 778 358 l 835 228 l 861 228 l 815 358 l 815 972 l 1079 972 l 1079 0 l 653 0 l 406 614 l 349 744 l 322 744 l 368 614 l 368 0 l 104 0 l 104 972 z "},"O":{"ha":1181,"x_min":76,"x_max":1104,"o":"m 590 -14 q 377 20 472 -14 q 215 119 282 54 q 113 276 149 183 q 76 486 76 368 q 113 697 76 604 q 215 853 149 789 q 377 952 282 918 q 590 986 472 986 q 803 952 708 986 q 965 853 899 918 q 1068 697 1032 789 q 1104 486 1104 604 q 1068 276 1104 368 q 965 119 1032 183 q 803 20 899 54 q 590 -14 708 -14 m 590 214 q 696 235 651 214 q 769 294 740 257 q 813 380 799 331 q 826 486 826 429 q 813 592 826 543 q 769 678 799 642 q 696 737 740 715 q 590 758 651 758 q 485 737 529 758 q 411 678 440 715 q 368 592 382 642 q 354 486 354 543 q 368 380 354 429 q 411 294 382 331 q 485 235 440 257 q 590 214 529 214 z "},"P":{"ha":1035,"x_min":104,"x_max":965,"o":"m 104 972 l 531 972 q 728 948 646 972 q 864 877 811 924 q 941 762 917 831 q 965 604 965 693 q 941 447 965 515 q 864 331 917 378 q 728 260 811 285 q 531 236 646 236 l 368 236 l 368 0 l 104 0 l 104 972 m 531 456 q 688 604 688 456 q 531 753 688 753 l 368 753 l 368 456 l 531 456 z "},"Q":{"ha":1181,"x_min":76,"x_max":1118,"o":"m 1118 -292 q 982 -280 1044 -292 q 867 -249 919 -268 q 771 -204 814 -229 q 694 -153 728 -179 q 564 -14 615 -92 q 363 25 453 -10 q 210 124 274 60 q 111 278 146 188 q 76 486 76 369 q 113 697 76 604 q 215 853 149 789 q 377 952 282 918 q 590 986 472 986 q 803 952 708 986 q 965 853 899 918 q 1068 697 1032 789 q 1104 486 1104 604 q 1093 365 1104 419 q 1064 267 1082 311 q 1023 190 1046 224 q 976 131 1000 156 q 849 39 921 71 q 903 -12 867 10 q 985 -48 933 -32 q 1118 -64 1036 -64 l 1118 -292 m 590 214 q 696 235 651 214 q 769 294 740 257 q 813 380 799 331 q 826 486 826 429 q 813 592 826 543 q 769 678 799 642 q 696 737 740 715 q 590 758 651 758 q 485 737 529 758 q 411 678 440 715 q 368 592 382 642 q 354 486 354 543 q 368 380 354 429 q 411 294 382 331 q 485 235 440 257 q 590 214 529 214 z "},"R":{"ha":1047,"x_min":104,"x_max":1026,"o":"m 104 972 l 542 972 q 730 953 651 972 q 857 894 808 933 q 928 794 906 854 q 951 651 951 733 q 926 514 951 568 q 869 428 900 460 q 788 371 833 390 l 788 367 l 1026 0 l 733 0 l 531 319 l 368 319 l 368 0 l 104 0 l 104 972 m 542 539 q 641 564 608 539 q 674 646 674 589 q 641 728 674 703 q 542 753 608 753 l 368 753 l 368 539 l 542 539 z "},"S":{"ha":1044,"x_min":63,"x_max":982,"o":"m 522 -14 q 178 66 293 -14 q 63 299 63 146 l 63 338 l 340 338 l 340 297 q 392 213 340 235 q 522 192 443 192 q 593 197 560 192 q 651 215 626 203 q 690 245 675 226 q 704 290 704 264 q 678 338 704 321 q 608 365 651 354 q 508 384 564 376 q 394 403 453 392 q 281 434 336 415 q 181 485 225 453 q 111 568 138 518 q 85 692 85 618 q 193 906 85 826 q 511 986 301 986 q 830 910 722 986 q 938 689 938 833 l 938 664 l 660 664 l 660 689 q 625 754 660 728 q 511 781 590 781 q 399 756 436 781 q 363 694 363 731 q 389 649 363 665 q 459 622 415 632 q 558 604 503 611 q 672 585 614 597 q 786 555 731 574 q 885 503 842 536 q 956 418 929 469 q 982 292 982 367 q 865 67 982 149 q 522 -14 749 -14 z "},"T":{"ha":953,"x_min":21,"x_max":932,"o":"m 344 750 l 21 750 l 21 972 l 932 972 l 932 750 l 608 750 l 608 0 l 344 0 l 344 750 z "},"U":{"ha":1136,"x_min":97,"x_max":1039,"o":"m 568 -14 q 381 8 467 -14 q 231 77 294 31 q 133 194 168 124 q 97 360 97 264 l 97 972 l 361 972 l 361 374 q 379 297 361 328 q 426 248 397 267 q 492 222 456 229 q 568 214 529 214 q 644 222 607 214 q 710 248 681 229 q 757 297 739 267 q 775 374 775 328 l 775 972 l 1039 972 l 1039 360 q 1003 194 1039 264 q 905 77 968 124 q 756 8 842 31 q 568 -14 669 -14 z "},"V":{"ha":1061,"x_min":21,"x_max":1040,"o":"m 21 972 l 299 972 l 518 257 l 543 257 l 763 972 l 1040 972 l 711 0 l 350 0 l 21 972 z "},"W":{"ha":1557,"x_min":35,"x_max":1522,"o":"m 35 972 l 307 972 l 442 275 l 457 275 l 596 972 l 961 972 l 1100 275 l 1115 275 l 1250 972 l 1522 972 l 1304 0 l 921 0 l 785 690 l 772 690 l 636 0 l 253 0 l 35 972 z "},"X":{"ha":992,"x_min":0,"x_max":992,"o":"m 326 513 l 40 972 l 339 972 l 488 697 l 504 697 l 653 972 l 951 972 l 665 513 l 992 0 l 692 0 l 504 319 l 488 319 l 300 0 l 0 0 l 326 513 z "},"Y":{"ha":983,"x_min":0,"x_max":983,"o":"m 342 328 l 0 972 l 286 972 l 482 560 l 501 560 l 697 972 l 983 972 l 642 328 l 642 0 l 342 0 l 342 328 z "},"Z":{"ha":974,"x_min":69,"x_max":904,"o":"m 69 211 l 558 751 l 558 761 l 74 761 l 74 972 l 897 972 l 897 761 l 408 221 l 408 211 l 904 211 l 904 0 l 69 0 l 69 211 z "},"_":{"ha":678,"x_min":-28,"x_max":706,"o":"m -28 -69 l 706 -69 l 706 -242 l -28 -242 l -28 -69 z "},"a":{"ha":932,"x_min":63,"x_max":890,"o":"m 344 -14 q 236 -1 288 -14 q 146 37 185 11 q 85 103 107 63 q 63 199 63 143 q 88 296 63 256 q 154 362 113 336 q 252 399 196 388 q 371 411 308 411 q 472 403 431 411 q 538 385 513 394 q 585 360 567 374 l 585 456 q 580 486 585 471 q 561 514 575 501 q 524 534 547 526 q 465 542 501 542 q 374 519 403 542 q 346 464 346 497 l 99 464 q 124 572 99 526 q 198 648 150 618 q 315 693 246 678 q 468 708 383 708 q 733 648 640 708 q 826 456 826 588 l 826 258 q 836 208 826 221 q 865 194 846 194 q 883 196 879 194 q 890 199 888 197 l 890 0 q 868 -7 882 -4 q 792 -14 843 -14 q 702 2 738 -14 q 646 38 667 18 q 610 90 621 61 l 599 90 q 589 73 599 89 q 551 38 579 57 q 473 2 522 18 q 344 -14 424 -14 m 444 153 q 542 165 504 153 q 579 210 579 176 q 542 255 579 243 q 444 267 504 267 q 347 255 385 267 q 310 210 310 243 q 347 165 310 176 q 444 153 385 153 z "},"b":{"ha":967,"x_min":90,"x_max":904,"o":"m 581 -14 q 468 7 514 -14 q 394 53 422 28 q 343 119 361 82 l 332 119 l 332 0 l 90 0 l 90 972 l 332 972 l 332 618 l 342 618 q 397 663 363 643 q 471 694 426 679 q 581 708 515 708 q 705 685 646 708 q 808 617 764 663 q 878 503 853 571 q 904 347 904 436 q 878 191 904 258 q 808 78 853 124 q 705 9 764 32 q 581 -14 646 -14 m 494 197 q 615 239 572 197 q 657 347 657 281 q 615 456 657 414 q 494 497 572 497 q 376 457 419 497 q 332 347 332 417 q 374 239 332 281 q 494 197 415 197 z "},"c":{"ha":925,"x_min":63,"x_max":869,"o":"m 469 -14 q 306 9 381 -14 q 178 78 232 32 q 93 191 124 124 q 63 347 63 258 q 93 503 63 436 q 178 617 124 571 q 306 685 232 663 q 469 708 381 708 q 636 683 563 708 q 762 617 710 658 q 842 520 814 575 q 869 406 869 465 l 621 406 q 594 456 613 433 q 548 490 578 475 q 469 506 518 506 q 353 463 397 506 q 310 347 310 421 q 353 231 310 274 q 469 189 397 189 q 548 204 518 189 q 594 239 578 219 q 621 289 613 261 l 869 289 q 842 173 869 228 q 762 76 814 118 q 636 10 710 35 q 469 -14 563 -14 z "},"d":{"ha":967,"x_min":63,"x_max":876,"o":"m 386 -14 q 262 9 321 -14 q 158 78 203 32 q 88 191 114 124 q 63 347 63 258 q 88 503 63 436 q 158 617 114 571 q 262 685 203 663 q 386 708 321 708 q 495 694 450 708 q 569 663 540 679 q 625 618 604 643 l 635 618 l 635 972 l 876 972 l 876 0 l 635 0 l 635 119 l 624 119 q 571 53 604 82 q 498 7 543 28 q 386 -14 453 -14 m 472 197 q 593 239 551 197 q 635 347 635 281 q 591 457 635 417 q 472 497 547 497 q 352 456 394 497 q 310 347 310 414 q 352 239 310 281 q 472 197 394 197 z "},"e":{"ha":938,"x_min":63,"x_max":875,"o":"m 471 -14 q 306 9 381 -14 q 176 77 231 32 q 92 190 122 122 q 63 347 63 257 q 92 504 63 436 q 176 617 122 572 q 306 685 231 663 q 469 708 381 708 q 631 685 557 708 q 760 617 706 663 q 844 504 814 572 q 875 347 875 436 q 874 331 875 339 q 872 315 874 322 q 871 300 871 307 l 315 300 q 352 195 317 238 q 471 153 388 153 q 533 163 508 153 q 572 188 557 174 q 600 224 589 203 l 858 224 q 800 104 846 157 q 752 60 781 82 q 683 22 724 39 q 590 -4 643 6 q 471 -14 538 -14 m 614 424 q 605 464 614 443 q 578 502 596 485 q 534 531 561 519 q 469 542 507 542 q 404 531 432 542 q 358 503 376 519 q 330 465 339 486 q 321 424 321 444 l 614 424 z "},"f":{"ha":624,"x_min":21,"x_max":651,"o":"m 144 488 l 21 488 l 21 621 l 144 674 l 144 688 q 232 911 144 836 q 501 986 319 986 q 564 981 536 986 q 611 969 592 976 q 651 954 635 963 l 651 763 q 619 778 636 771 q 583 790 604 785 q 538 794 563 794 q 427 765 468 794 q 386 688 386 736 l 386 674 l 582 674 l 582 488 l 386 488 l 386 0 l 144 0 l 144 488 z "},"g":{"ha":894,"x_min":35,"x_max":888,"o":"m 439 -292 q 276 -281 350 -292 q 148 -244 201 -269 q 65 -176 94 -218 q 35 -69 35 -133 q 56 18 35 -17 q 101 74 76 53 q 169 113 131 99 l 169 118 q 143 138 154 126 q 126 162 133 147 q 118 196 118 176 q 130 238 118 219 q 157 267 142 256 q 197 288 174 281 l 197 293 q 146 332 168 307 q 111 387 126 353 q 96 474 96 421 q 120 572 96 529 q 189 646 144 615 q 297 692 233 676 q 439 708 360 708 l 888 708 l 888 553 l 761 553 q 771 529 765 543 q 778 501 775 518 q 782 464 782 483 q 690 296 782 353 q 439 239 597 239 q 333 229 364 239 q 303 196 303 219 q 333 163 303 172 q 439 153 364 153 q 603 142 528 153 q 732 105 678 131 q 816 36 786 79 q 846 -69 846 -7 q 816 -176 846 -133 q 732 -244 786 -218 q 603 -281 678 -269 q 439 -292 528 -292 m 440 -131 q 561 -118 518 -131 q 604 -69 604 -106 q 561 -21 604 -33 q 440 -8 518 -8 q 319 -21 363 -8 q 276 -69 276 -33 q 319 -118 276 -106 q 440 -131 363 -131 m 439 394 q 518 417 493 394 q 543 474 543 440 q 518 530 543 507 q 439 553 493 553 q 360 530 385 553 q 335 474 335 507 q 360 417 335 440 q 439 394 385 394 z "},"h":{"ha":961,"x_min":90,"x_max":878,"o":"m 90 972 l 332 972 l 332 574 l 344 574 q 394 640 361 611 q 471 687 422 665 q 594 708 519 708 q 709 691 657 708 q 799 638 761 674 q 857 545 836 601 q 878 411 878 489 l 878 0 l 636 0 l 636 342 q 597 457 636 417 q 485 497 557 497 q 369 453 406 497 q 332 342 332 410 l 332 0 l 90 0 l 90 972 z "},"i":{"ha":422,"x_min":82,"x_max":340,"o":"m 90 694 l 332 694 l 332 0 l 90 0 l 90 694 m 211 778 q 117 806 151 778 q 82 882 82 833 q 117 958 82 931 q 211 986 151 986 q 306 958 271 986 q 340 882 340 931 q 306 806 340 833 q 211 778 271 778 z "},"j":{"ha":442,"x_min":-69,"x_max":360,"o":"m 58 -292 q 7 -289 31 -292 q -33 -282 -17 -286 q -69 -272 -53 -278 l -69 -79 q -50 -87 -61 -83 q 0 -94 -29 -94 q 80 -68 50 -94 q 110 31 110 -42 l 110 694 l 351 694 l 351 8 q 331 -126 351 -69 q 271 -220 310 -183 q 178 -274 232 -257 q 58 -292 125 -292 m 231 778 q 136 806 171 778 q 101 882 101 833 q 136 958 101 931 q 231 986 171 986 q 325 958 290 986 q 360 882 360 931 q 325 806 360 833 q 231 778 290 778 z "},"k":{"ha":881,"x_min":90,"x_max":881,"o":"m 90 972 l 332 972 l 332 374 l 585 694 l 854 694 l 582 360 l 881 0 l 611 0 l 332 346 l 332 0 l 90 0 l 90 972 z "},"l":{"ha":422,"x_min":90,"x_max":332,"o":"m 90 972 l 332 972 l 332 0 l 90 0 l 90 972 z "},"m":{"ha":1338,"x_min":90,"x_max":1254,"o":"m 90 694 l 332 694 l 332 574 l 343 574 q 385 640 357 611 q 449 687 408 665 q 551 708 489 708 q 660 687 618 708 q 726 640 703 665 q 767 574 754 611 l 778 574 q 818 640 792 611 q 881 687 842 665 q 985 708 921 708 q 1185 638 1115 708 q 1254 411 1254 567 l 1254 0 l 1013 0 l 1013 356 q 989 458 1013 418 q 904 497 965 497 q 819 461 844 497 q 793 364 793 425 l 793 0 l 551 0 l 551 356 q 528 458 551 418 q 442 497 504 497 q 356 458 381 497 q 332 356 332 419 l 332 0 l 90 0 l 90 694 z "},"n":{"ha":961,"x_min":90,"x_max":878,"o":"m 90 694 l 332 694 l 332 574 l 344 574 q 394 640 361 611 q 471 687 422 665 q 594 708 519 708 q 709 691 657 708 q 799 638 761 674 q 857 545 836 601 q 878 411 878 489 l 878 0 l 636 0 l 636 342 q 597 457 636 417 q 485 497 557 497 q 369 453 406 497 q 332 342 332 410 l 332 0 l 90 0 l 90 694 z "},"o":{"ha":939,"x_min":63,"x_max":876,"o":"m 469 -14 q 306 9 381 -14 q 176 77 231 32 q 92 190 122 122 q 63 347 63 257 q 92 504 63 436 q 176 617 122 572 q 306 685 231 663 q 469 708 381 708 q 633 685 558 708 q 763 617 708 663 q 847 504 817 572 q 876 347 876 436 q 847 190 876 257 q 763 77 817 122 q 633 9 708 32 q 469 -14 558 -14 m 469 194 q 585 236 542 194 q 629 347 629 278 q 585 458 629 417 q 469 500 542 500 q 353 458 397 500 q 310 347 310 417 q 353 236 310 278 q 469 194 397 194 z "},"p":{"ha":967,"x_min":90,"x_max":904,"o":"m 90 694 l 332 694 l 332 575 l 343 575 q 394 642 361 613 q 468 688 422 667 q 581 708 514 708 q 705 685 646 708 q 808 617 764 663 q 878 503 853 571 q 904 347 904 436 q 878 191 904 258 q 808 78 853 124 q 705 9 764 32 q 581 -14 646 -14 q 471 0 515 -14 q 397 31 426 14 q 342 76 363 50 l 332 76 l 332 -278 l 90 -278 l 90 694 m 494 197 q 615 239 572 197 q 657 347 657 281 q 615 456 657 414 q 494 497 572 497 q 374 456 415 497 q 332 347 332 414 q 376 238 332 278 q 494 197 419 197 z "},"q":{"ha":967,"x_min":63,"x_max":876,"o":"m 635 76 l 625 76 q 569 31 604 50 q 495 0 540 14 q 386 -14 450 -14 q 262 9 321 -14 q 158 78 203 32 q 88 191 114 124 q 63 347 63 258 q 88 503 63 436 q 158 617 114 571 q 262 685 203 663 q 386 708 321 708 q 498 688 453 708 q 571 642 543 667 q 624 575 604 613 l 635 575 l 635 694 l 876 694 l 876 -278 l 635 -278 l 635 76 m 472 197 q 591 238 547 197 q 635 347 635 278 q 593 456 635 414 q 472 497 551 497 q 352 456 394 497 q 310 347 310 414 q 352 239 310 281 q 472 197 394 197 z "},"r":{"ha":700,"x_min":90,"x_max":644,"o":"m 90 694 l 332 694 l 332 574 l 344 574 q 396 640 363 611 q 469 687 424 665 q 585 708 514 708 q 607 707 596 708 q 626 704 618 706 q 644 701 636 703 l 644 436 q 613 449 631 443 q 572 457 596 453 q 515 461 547 461 q 376 413 419 461 q 332 292 332 364 l 332 0 l 90 0 l 90 694 z "},"s":{"ha":853,"x_min":49,"x_max":804,"o":"m 425 -14 q 265 -1 335 -14 q 147 39 196 11 q 74 112 99 67 q 49 222 49 157 l 49 244 l 296 244 l 296 222 q 325 166 296 182 q 425 150 354 150 q 528 165 500 150 q 557 208 557 181 q 520 250 557 239 q 428 267 483 261 q 310 279 374 272 q 191 308 246 286 q 99 372 136 329 q 63 494 63 415 q 154 653 63 597 q 414 708 246 708 q 677 653 586 708 q 768 476 768 599 l 521 476 q 519 500 521 488 q 508 522 518 513 q 475 538 497 532 q 413 544 453 544 q 332 531 354 544 q 310 494 310 517 q 347 459 310 468 q 438 445 383 450 q 557 433 493 440 q 676 403 621 425 q 767 336 731 381 q 804 213 804 292 q 706 40 804 93 q 425 -14 607 -14 z "},"t":{"ha":651,"x_min":35,"x_max":589,"o":"m 460 -14 q 211 53 293 -14 q 129 271 129 119 l 129 508 l 35 508 l 35 633 l 244 833 l 371 833 l 371 694 l 568 694 l 568 508 l 371 508 l 371 303 q 406 208 371 232 q 497 183 442 183 q 534 186 517 183 q 564 193 551 189 q 589 204 579 199 l 589 10 q 556 -3 575 3 q 515 -10 539 -7 q 460 -14 490 -14 z "},"u":{"ha":968,"x_min":90,"x_max":878,"o":"m 374 -14 q 259 3 311 -14 q 169 57 207 21 q 111 149 132 93 q 90 283 90 206 l 90 694 l 332 694 l 332 353 q 372 238 332 278 q 483 197 411 197 q 599 241 563 197 q 636 353 636 285 l 636 694 l 878 694 l 878 0 l 636 0 l 636 121 l 624 121 q 574 53 607 82 q 497 7 546 28 q 374 -14 449 -14 z "},"v":{"ha":851,"x_min":7,"x_max":844,"o":"m 7 694 l 261 694 l 419 197 l 432 197 l 590 694 l 844 694 l 601 0 l 250 0 l 7 694 z "},"w":{"ha":1283,"x_min":21,"x_max":1263,"o":"m 21 694 l 265 694 l 364 211 l 374 211 l 497 694 l 786 694 l 910 211 l 919 211 l 1018 694 l 1263 694 l 1088 0 l 765 0 l 646 460 l 638 460 l 518 0 l 196 0 l 21 694 z "},"x":{"ha":814,"x_min":-7,"x_max":821,"o":"m 238 364 l 26 694 l 288 694 l 404 479 l 410 479 l 526 694 l 788 694 l 576 364 l 821 0 l 553 0 l 410 235 l 404 235 l 261 0 l -7 0 l 238 364 z "},"y":{"ha":826,"x_min":-14,"x_max":840,"o":"m 217 -292 q 172 -289 193 -292 q 135 -283 151 -286 q 97 -275 115 -279 l 97 -74 q 118 -81 106 -78 q 142 -85 129 -83 q 175 -86 156 -86 q 258 -66 224 -86 q 313 7 292 -46 l 318 21 l -14 694 l 240 694 l 397 354 l 415 215 l 435 215 l 453 354 l 585 694 l 840 694 l 550 7 q 489 -115 521 -60 q 417 -210 457 -171 q 328 -270 378 -249 q 217 -292 279 -292 z "},"z":{"ha":839,"x_min":63,"x_max":776,"o":"m 63 197 l 433 493 l 433 497 l 79 497 l 79 694 l 763 694 l 763 497 l 392 201 l 392 197 l 776 197 l 776 0 l 63 0 l 63 197 z "},"«":{"ha":846,"x_min":42,"x_max":797,"o":"m 42 344 l 224 601 l 450 601 l 260 347 l 260 342 l 450 88 l 224 88 l 42 344 m 389 344 l 571 601 l 797 601 l 607 347 l 607 342 l 797 88 l 571 88 l 389 344 z "},"»":{"ha":846,"x_min":49,"x_max":804,"o":"m 239 342 l 239 347 l 49 601 l 275 601 l 457 344 l 275 88 l 49 88 l 239 342 m 586 342 l 586 347 l 396 601 l 622 601 l 804 344 l 622 88 l 396 88 l 586 342 z "},"Ё":{"ha":1011,"x_min":104,"x_max":935,"o":"m 104 972 l 935 972 l 935 761 l 368 761 l 368 597 l 840 597 l 840 397 l 368 397 l 368 211 l 935 211 l 935 0 l 104 0 l 104 972 m 385 1076 q 306 1098 336 1076 q 276 1168 276 1119 q 306 1238 276 1217 q 385 1260 336 1260 q 463 1238 433 1260 q 493 1168 493 1217 q 463 1098 493 1119 q 385 1076 433 1076 m 690 1076 q 612 1098 642 1076 q 582 1168 582 1119 q 612 1238 582 1217 q 690 1260 642 1260 q 769 1238 739 1260 q 799 1168 799 1217 q 769 1098 799 1119 q 690 1076 739 1076 z "},"А":{"ha":1100,"x_min":-7,"x_max":1107,"o":"m 382 972 l 718 972 l 1107 0 l 831 0 l 771 149 l 329 149 l 269 0 l -7 0 l 382 972 m 697 349 l 558 715 l 542 715 l 403 349 l 697 349 z "},"Б":{"ha":1036,"x_min":104,"x_max":974,"o":"m 104 972 l 879 972 l 879 764 l 368 764 l 368 628 l 578 628 q 881 547 789 628 q 974 314 974 467 q 879 77 974 154 q 578 0 785 0 l 104 0 l 104 972 m 569 208 q 664 231 629 208 q 699 314 699 253 q 664 397 699 375 q 569 419 629 419 l 368 419 l 368 208 l 569 208 z "},"В":{"ha":1035,"x_min":104,"x_max":972,"o":"m 104 972 l 608 972 q 851 905 776 972 q 926 722 926 838 q 903 620 926 660 q 851 557 879 581 q 776 518 818 531 l 776 506 q 874 464 831 493 q 941 393 910 439 q 972 271 972 347 q 890 65 972 129 q 621 0 807 0 l 104 0 l 104 972 m 575 201 q 667 231 639 201 q 694 304 694 260 q 667 378 694 349 q 575 407 639 407 l 368 407 l 368 201 l 575 201 m 544 585 q 626 612 603 585 q 649 678 649 639 q 626 744 649 717 q 544 771 603 771 l 368 771 l 368 585 l 544 585 z "},"Г":{"ha":907,"x_min":104,"x_max":879,"o":"m 104 972 l 879 972 l 879 750 l 368 750 l 368 0 l 104 0 l 104 972 z "},"Д":{"ha":1160,"x_min":7,"x_max":1132,"o":"m 7 211 l 58 211 q 103 225 85 211 q 134 263 122 239 q 152 319 146 288 q 163 386 158 350 l 225 972 l 999 972 l 999 211 l 1132 211 l 1132 -215 l 868 -215 l 868 0 l 271 0 l 271 -215 l 7 -215 l 7 211 m 735 211 l 735 761 l 468 761 l 425 374 q 406 291 418 321 q 379 246 393 261 q 346 222 364 228 l 346 211 l 735 211 z "},"Е":{"ha":1011,"x_min":104,"x_max":935,"o":"m 104 972 l 935 972 l 935 761 l 368 761 l 368 597 l 840 597 l 840 397 l 368 397 l 368 211 l 935 211 l 935 0 l 104 0 l 104 972 z "},"Ж":{"ha":1508,"x_min":0,"x_max":1508,"o":"m 358 493 l 18 972 l 324 972 l 622 510 l 622 972 l 886 972 l 886 510 l 1185 972 l 1490 972 l 1150 493 l 1508 0 l 1203 0 l 886 475 l 886 0 l 622 0 l 622 475 l 306 0 l 0 0 l 358 493 z "},"З":{"ha":1019,"x_min":69,"x_max":950,"o":"m 510 -14 q 303 8 388 -14 q 167 71 219 31 q 92 168 115 111 q 69 294 69 225 l 69 342 l 347 342 l 347 294 q 383 221 347 250 q 510 192 418 192 q 587 201 556 192 q 637 226 618 211 q 664 260 656 242 q 672 297 672 279 q 641 372 672 342 q 532 403 610 403 l 414 403 l 414 589 l 519 589 q 613 616 586 589 q 640 683 640 643 q 634 719 640 701 q 612 749 628 736 q 569 770 596 763 q 501 778 543 778 q 394 751 431 778 q 358 678 358 724 l 358 650 l 81 650 l 81 679 q 105 805 81 749 q 181 901 129 861 q 311 964 232 942 q 501 986 390 986 q 690 967 611 986 q 819 913 768 947 q 894 831 869 878 q 918 728 918 783 q 893 619 918 660 q 838 554 868 578 q 757 517 801 528 l 757 504 q 853 467 810 494 q 919 396 889 443 q 950 268 950 349 q 834 54 950 122 q 510 -14 718 -14 z "},"И":{"ha":1169,"x_min":104,"x_max":1065,"o":"m 104 972 l 368 972 l 368 363 l 328 224 l 354 224 l 406 363 l 683 972 l 1065 972 l 1065 0 l 801 0 l 801 610 l 842 749 l 815 749 l 764 610 l 486 0 l 104 0 l 104 972 z "},"Й":{"ha":1169,"x_min":104,"x_max":1065,"o":"m 104 972 l 368 972 l 368 363 l 328 224 l 354 224 l 406 363 l 683 972 l 1065 972 l 1065 0 l 801 0 l 801 610 l 842 749 l 815 749 l 764 610 l 486 0 l 104 0 l 104 972 m 589 1083 q 317 1306 317 1083 l 317 1317 l 499 1317 l 499 1306 q 517 1258 499 1278 q 589 1238 536 1238 q 660 1258 642 1238 q 679 1306 679 1278 l 679 1317 l 861 1317 l 861 1306 q 589 1083 861 1083 z "},"К":{"ha":1032,"x_min":104,"x_max":1039,"o":"m 104 972 l 368 972 l 368 510 l 715 972 l 1021 972 l 654 493 l 1039 0 l 733 0 l 368 475 l 368 0 l 104 0 l 104 972 z "},"Л":{"ha":1118,"x_min":7,"x_max":1015,"o":"m 129 -14 q 40 -7 75 -14 q 7 0 22 -4 l 7 249 q 19 246 13 247 q 35 244 26 244 q 57 244 44 244 q 133 277 107 244 q 165 375 158 310 l 233 972 l 1015 972 l 1015 0 l 751 0 l 751 750 l 481 750 l 426 313 q 398 171 417 232 q 345 69 379 110 q 259 7 311 28 q 129 -14 207 -14 z "},"М":{"ha":1361,"x_min":104,"x_max":1257,"o":"m 104 972 l 524 972 l 658 532 l 669 403 l 692 403 l 703 532 l 838 972 l 1257 972 l 1257 0 l 993 0 l 993 613 l 1031 744 l 1004 744 l 958 613 l 835 219 l 526 219 l 403 613 l 357 744 l 331 744 l 368 613 l 368 0 l 104 0 l 104 972 z "},"Н":{"ha":1157,"x_min":104,"x_max":1053,"o":"m 104 972 l 368 972 l 368 622 l 789 622 l 789 972 l 1053 972 l 1053 0 l 789 0 l 789 400 l 368 400 l 368 0 l 104 0 l 104 972 z "},"О":{"ha":1181,"x_min":76,"x_max":1104,"o":"m 590 -14 q 377 20 472 -14 q 215 119 282 54 q 113 276 149 183 q 76 486 76 368 q 113 697 76 604 q 215 853 149 789 q 377 952 282 918 q 590 986 472 986 q 803 952 708 986 q 965 853 899 918 q 1068 697 1032 789 q 1104 486 1104 604 q 1068 276 1104 368 q 965 119 1032 183 q 803 20 899 54 q 590 -14 708 -14 m 590 214 q 696 235 651 214 q 769 294 740 257 q 813 380 799 331 q 826 486 826 429 q 813 592 826 543 q 769 678 799 642 q 696 737 740 715 q 590 758 651 758 q 485 737 529 758 q 411 678 440 715 q 368 592 382 642 q 354 486 354 543 q 368 380 354 429 q 411 294 382 331 q 485 235 440 257 q 590 214 529 214 z "},"П":{"ha":1138,"x_min":104,"x_max":1033,"o":"m 104 972 l 1033 972 l 1033 0 l 769 0 l 769 750 l 368 750 l 368 0 l 104 0 l 104 972 z "},"Р":{"ha":1035,"x_min":104,"x_max":965,"o":"m 104 972 l 531 972 q 728 948 646 972 q 864 877 811 924 q 941 762 917 831 q 965 604 965 693 q 941 447 965 515 q 864 331 917 378 q 728 260 811 285 q 531 236 646 236 l 368 236 l 368 0 l 104 0 l 104 972 m 531 456 q 688 604 688 456 q 531 753 688 753 l 368 753 l 368 456 l 531 456 z "},"С":{"ha":1151,"x_min":76,"x_max":1082,"o":"m 585 -14 q 376 20 469 -14 q 215 119 282 54 q 113 276 149 183 q 76 486 76 368 q 113 697 76 604 q 215 853 149 789 q 376 952 282 918 q 585 986 469 986 q 789 956 697 986 q 946 872 881 926 q 1047 744 1011 818 q 1082 583 1082 671 l 804 583 q 772 671 797 632 q 706 731 750 703 q 585 758 663 758 q 483 737 526 758 q 410 678 439 715 q 368 592 382 642 q 354 486 354 543 q 368 380 354 429 q 410 294 382 331 q 483 235 439 257 q 585 214 526 214 q 706 241 663 214 q 772 301 750 268 q 804 389 797 339 l 1082 389 q 1047 228 1082 301 q 946 100 1011 154 q 789 16 881 46 q 585 -14 697 -14 z "},"Т":{"ha":953,"x_min":21,"x_max":932,"o":"m 344 750 l 21 750 l 21 972 l 932 972 l 932 750 l 608 750 l 608 0 l 344 0 l 344 750 z "},"У":{"ha":994,"x_min":-14,"x_max":1008,"o":"m 163 208 l 247 208 q 299 213 278 208 q 335 226 319 217 q 363 251 351 236 q 388 290 375 267 l -14 972 l 279 972 l 481 625 l 506 472 l 533 472 l 558 625 l 722 972 l 1008 972 l 675 290 q 607 172 643 225 q 522 80 571 118 q 410 21 474 42 q 257 0 346 0 l 163 0 l 163 208 z "},"Ф":{"ha":1381,"x_min":63,"x_max":1318,"o":"m 558 83 q 354 110 446 85 q 198 184 263 135 q 98 308 133 233 q 63 486 63 383 q 98 664 63 589 q 198 788 133 739 q 354 862 263 838 q 558 889 446 886 l 558 986 l 822 986 l 822 889 q 1026 862 935 886 q 1183 788 1118 838 q 1283 664 1247 739 q 1318 486 1318 589 q 1283 308 1318 383 q 1183 184 1247 233 q 1026 110 1118 135 q 822 83 935 85 l 822 -14 l 558 -14 l 558 83 m 558 669 q 396 622 451 668 q 340 486 340 575 q 396 351 340 397 q 558 303 451 304 l 558 669 m 822 303 q 985 351 929 304 q 1040 486 1040 397 q 985 622 1040 575 q 822 669 929 668 l 822 303 z "},"Х":{"ha":992,"x_min":0,"x_max":992,"o":"m 326 513 l 40 972 l 339 972 l 488 697 l 504 697 l 653 972 l 951 972 l 665 513 l 992 0 l 692 0 l 504 319 l 488 319 l 300 0 l 0 0 l 326 513 z "},"Ц":{"ha":1143,"x_min":104,"x_max":1115,"o":"m 851 0 l 104 0 l 104 972 l 368 972 l 368 222 l 718 222 l 718 972 l 982 972 l 982 222 l 1115 222 l 1115 -215 l 851 -215 l 851 0 z "},"Ч":{"ha":1056,"x_min":90,"x_max":951,"o":"m 688 276 l 531 276 q 329 300 413 276 q 192 371 246 324 q 115 488 139 418 q 90 650 90 558 l 90 972 l 354 972 l 354 650 q 401 531 354 564 q 531 499 447 499 l 688 499 l 688 972 l 951 972 l 951 0 l 688 0 l 688 276 z "},"Ш":{"ha":1447,"x_min":104,"x_max":1343,"o":"m 104 972 l 368 972 l 368 222 l 592 222 l 592 972 l 856 972 l 856 222 l 1079 222 l 1079 972 l 1343 972 l 1343 0 l 104 0 l 104 972 z "},"Щ":{"ha":1504,"x_min":104,"x_max":1476,"o":"m 1213 0 l 104 0 l 104 972 l 368 972 l 368 222 l 592 222 l 592 972 l 856 972 l 856 222 l 1079 222 l 1079 972 l 1343 972 l 1343 222 l 1476 222 l 1476 -215 l 1213 -215 l 1213 0 z "},"Ъ":{"ha":1132,"x_min":0,"x_max":1069,"o":"m 231 753 l 0 753 l 0 972 l 494 972 l 494 683 l 643 683 q 840 660 758 683 q 972 594 921 638 q 1046 486 1022 550 q 1069 342 1069 422 q 1046 197 1069 260 q 972 90 1022 133 q 840 23 921 46 q 643 0 758 0 l 231 0 l 231 753 m 643 219 q 792 342 792 219 q 643 464 792 464 l 494 464 l 494 219 l 643 219 z "},"Ы":{"ha":1389,"x_min":104,"x_max":1285,"o":"m 104 972 l 368 972 l 368 683 l 483 683 q 680 660 599 683 q 812 594 761 638 q 886 486 863 550 q 910 342 910 422 q 886 197 910 260 q 812 90 863 133 q 680 23 761 46 q 483 0 599 0 l 104 0 l 104 972 m 483 219 q 632 342 632 219 q 483 464 632 464 l 368 464 l 368 219 l 483 219 m 1021 972 l 1285 972 l 1285 0 l 1021 0 l 1021 972 z "},"Ь":{"ha":1006,"x_min":104,"x_max":943,"o":"m 104 972 l 368 972 l 368 683 l 517 683 q 713 660 632 683 q 845 594 794 638 q 919 486 896 550 q 943 342 943 422 q 919 197 943 260 q 845 90 896 133 q 713 23 794 46 q 517 0 632 0 l 104 0 l 104 972 m 517 219 q 665 342 665 219 q 517 464 665 464 l 368 464 l 368 219 l 517 219 z "},"Э":{"ha":1151,"x_min":69,"x_max":1075,"o":"m 567 -14 q 363 16 454 -14 q 206 100 271 46 q 105 228 140 154 q 69 389 69 301 l 347 389 q 381 301 356 339 q 447 241 403 268 q 568 214 490 214 q 672 233 629 214 q 740 278 714 251 q 778 338 767 306 q 790 397 790 369 l 494 397 l 494 583 l 789 583 q 776 638 789 607 q 737 695 764 668 q 668 740 710 722 q 568 758 626 758 q 499 751 529 758 q 447 731 469 743 q 408 703 424 718 q 381 671 392 688 q 347 583 356 632 l 69 583 q 105 744 69 671 q 206 872 140 818 q 363 956 271 926 q 567 986 454 986 q 774 952 681 986 q 935 853 868 918 q 1038 697 1001 789 q 1075 486 1075 604 q 1038 276 1075 368 q 935 119 1001 183 q 774 20 868 54 q 567 -14 681 -14 z "},"Ю":{"ha":1478,"x_min":104,"x_max":1401,"o":"m 931 -14 q 788 3 850 -14 q 678 49 725 21 q 597 113 631 76 q 540 186 563 149 q 471 388 486 274 l 368 388 l 368 0 l 104 0 l 104 972 l 368 972 l 368 607 l 474 607 q 547 796 492 713 q 604 865 571 831 q 685 926 638 900 q 792 969 732 953 q 931 986 853 986 q 1131 949 1043 986 q 1278 844 1218 911 q 1370 686 1339 778 q 1401 486 1401 594 q 1370 286 1401 378 q 1278 128 1339 194 q 1131 24 1218 61 q 931 -14 1043 -14 m 931 214 q 1020 236 983 214 q 1080 296 1057 258 q 1113 383 1103 333 q 1124 486 1124 432 q 1113 590 1124 540 q 1080 676 1103 639 q 1020 736 1057 714 q 931 758 983 758 q 841 736 878 758 q 781 676 804 714 q 748 590 758 639 q 738 486 738 540 q 748 383 738 432 q 781 296 758 333 q 841 236 804 258 q 931 214 878 214 z "},"Я":{"ha":1014,"x_min":42,"x_max":910,"o":"m 238 339 l 238 344 q 210 358 236 344 q 154 404 185 371 q 99 494 124 438 q 74 639 74 551 q 169 888 74 803 q 474 972 265 972 l 910 972 l 910 0 l 646 0 l 646 292 l 489 292 l 329 0 l 42 0 l 238 339 m 646 511 l 646 753 l 472 753 q 383 722 414 753 q 351 632 351 690 q 383 542 351 574 q 472 511 414 511 l 646 511 z "},"а":{"ha":932,"x_min":63,"x_max":890,"o":"m 344 -14 q 236 -1 288 -14 q 146 37 185 11 q 85 103 107 63 q 63 199 63 143 q 88 296 63 256 q 154 362 113 336 q 252 399 196 388 q 371 411 308 411 q 472 403 431 411 q 538 385 513 394 q 585 360 567 374 l 585 456 q 580 486 585 471 q 561 514 575 501 q 524 534 547 526 q 465 542 501 542 q 374 519 403 542 q 346 464 346 497 l 99 464 q 124 572 99 526 q 198 648 150 618 q 315 693 246 678 q 468 708 383 708 q 733 648 640 708 q 826 456 826 588 l 826 258 q 836 208 826 221 q 865 194 846 194 q 883 196 879 194 q 890 199 888 197 l 890 0 q 868 -7 882 -4 q 792 -14 843 -14 q 702 2 738 -14 q 646 38 667 18 q 610 90 621 61 l 599 90 q 589 73 599 89 q 551 38 579 57 q 473 2 522 18 q 344 -14 424 -14 m 444 153 q 542 165 504 153 q 579 210 579 176 q 542 255 579 243 q 444 267 504 267 q 347 255 385 267 q 310 210 310 243 q 347 165 310 176 q 444 153 385 153 z "},"б":{"ha":951,"x_min":76,"x_max":889,"o":"m 485 -14 q 324 10 399 -14 q 195 88 250 35 q 108 225 140 140 q 76 431 76 310 q 99 618 76 532 q 171 767 122 704 q 295 866 219 831 q 478 901 371 901 q 565 919 544 901 q 585 972 585 938 l 838 972 q 840 952 839 963 q 840 931 840 942 q 825 836 840 878 q 773 766 810 794 q 675 722 736 738 q 521 707 614 707 q 378 663 425 707 q 331 556 331 618 l 340 556 q 385 588 356 572 q 451 609 410 599 q 558 619 492 619 q 801 540 714 619 q 889 306 889 460 q 859 169 889 229 q 776 69 829 110 q 648 8 722 29 q 485 -14 574 -14 m 486 181 q 599 214 557 181 q 642 306 642 247 q 599 396 642 364 q 486 428 557 428 q 373 396 415 428 q 331 306 331 364 q 373 214 331 247 q 486 181 415 181 z "},"в":{"ha":883,"x_min":90,"x_max":828,"o":"m 90 694 l 535 694 q 732 649 672 694 q 792 517 792 604 q 773 441 792 469 q 732 397 754 413 q 672 371 706 379 l 672 361 q 750 333 715 354 q 803 283 779 315 q 828 193 828 250 q 767 45 828 90 q 568 0 706 0 l 90 0 l 90 694 m 493 161 q 561 177 542 161 q 581 221 581 193 q 562 264 581 247 q 493 281 543 281 l 332 281 l 332 161 l 493 161 m 469 428 q 528 442 511 428 q 544 481 544 456 q 527 521 544 508 q 469 533 510 533 l 332 533 l 332 428 l 469 428 z "},"г":{"ha":726,"x_min":90,"x_max":699,"o":"m 90 694 l 699 694 l 699 489 l 332 489 l 332 0 l 90 0 l 90 694 z "},"д":{"ha":925,"x_min":0,"x_max":897,"o":"m 0 183 l 35 183 q 99 217 83 183 q 122 317 115 250 l 167 694 l 804 694 l 804 183 l 897 183 l 897 -153 l 656 -153 l 656 0 l 242 0 l 242 -153 l 0 -153 l 0 183 m 563 183 l 563 511 l 383 511 l 353 282 q 340 233 349 251 q 322 206 331 215 q 301 190 313 194 l 301 183 l 563 183 z "},"е":{"ha":938,"x_min":63,"x_max":875,"o":"m 471 -14 q 306 9 381 -14 q 176 77 231 32 q 92 190 122 122 q 63 347 63 257 q 92 504 63 436 q 176 617 122 572 q 306 685 231 663 q 469 708 381 708 q 631 685 557 708 q 760 617 706 663 q 844 504 814 572 q 875 347 875 436 q 874 331 875 339 q 872 315 874 322 q 871 300 871 307 l 315 300 q 352 195 317 238 q 471 153 388 153 q 533 163 508 153 q 572 188 557 174 q 600 224 589 203 l 858 224 q 800 104 846 157 q 752 60 781 82 q 683 22 724 39 q 590 -4 643 6 q 471 -14 538 -14 m 614 424 q 605 464 614 443 q 578 502 596 485 q 534 531 561 519 q 469 542 507 542 q 404 531 432 542 q 358 503 376 519 q 330 465 339 486 q 321 424 321 444 l 614 424 z "},"ж":{"ha":1286,"x_min":0,"x_max":1286,"o":"m 290 354 l 26 694 l 297 694 l 522 364 l 522 694 l 764 694 l 764 364 l 989 694 l 1260 694 l 996 354 l 1286 0 l 1017 0 l 764 339 l 764 0 l 522 0 l 522 339 l 269 0 l 0 0 l 290 354 z "},"з":{"ha":861,"x_min":56,"x_max":806,"o":"m 428 -14 q 152 39 249 -14 q 56 210 56 92 l 56 239 l 297 239 l 297 222 q 327 172 297 186 q 428 158 357 158 q 528 172 499 158 q 558 218 558 186 q 529 265 558 253 q 435 278 500 278 l 351 278 l 351 428 l 440 428 q 515 443 492 428 q 538 482 538 458 q 513 521 538 506 q 422 536 488 536 q 365 531 388 536 q 330 516 343 525 q 312 495 317 507 q 307 472 307 483 l 307 467 l 65 467 l 65 486 q 91 583 65 542 q 164 653 117 625 q 277 694 211 681 q 422 708 343 708 q 569 697 503 708 q 684 661 636 685 q 758 602 732 638 q 785 519 785 567 q 760 437 785 467 q 707 392 736 407 q 631 369 672 374 l 631 361 q 718 336 679 356 q 778 285 750 319 q 806 189 806 251 q 775 90 806 129 q 692 27 744 50 q 572 -5 640 4 q 428 -14 503 -14 z "},"и":{"ha":969,"x_min":90,"x_max":879,"o":"m 90 694 l 332 694 l 332 314 l 315 224 l 331 224 l 363 314 l 588 694 l 879 694 l 879 0 l 638 0 l 638 381 l 654 471 l 639 471 l 607 381 l 382 0 l 90 0 l 90 694 z "},"й":{"ha":969,"x_min":90,"x_max":879,"o":"m 90 694 l 332 694 l 332 314 l 315 224 l 331 224 l 363 314 l 588 694 l 879 694 l 879 0 l 638 0 l 638 381 l 654 471 l 639 471 l 607 381 l 382 0 l 90 0 l 90 694 m 485 792 q 313 836 376 792 q 249 979 249 881 l 249 982 l 410 982 l 410 979 q 426 941 410 958 q 485 924 443 924 q 543 941 526 924 q 560 979 560 958 l 560 982 l 721 982 l 721 979 q 657 836 721 881 q 485 792 593 792 z "},"к":{"ha":881,"x_min":90,"x_max":881,"o":"m 90 694 l 332 694 l 332 364 l 583 694 l 854 694 l 582 354 l 881 0 l 611 0 l 332 339 l 332 0 l 90 0 l 90 694 z "},"л":{"ha":894,"x_min":0,"x_max":804,"o":"m 100 -14 q 29 -7 60 -14 q 0 0 14 -4 l 0 206 q 11 203 6 204 q 24 201 17 201 q 42 200 31 200 q 97 229 82 200 q 119 308 113 258 l 165 694 l 804 694 l 804 0 l 563 0 l 563 489 l 376 489 l 347 240 q 100 -14 318 -14 z "},"м":{"ha":1108,"x_min":90,"x_max":1018,"o":"m 90 694 l 421 694 l 538 406 l 546 333 l 563 333 l 571 406 l 688 694 l 1018 694 l 1018 0 l 776 0 l 776 372 l 793 458 l 776 458 l 749 372 l 654 157 l 454 157 l 360 372 l 332 458 l 315 458 l 332 372 l 332 0 l 90 0 l 90 694 z "},"н":{"ha":943,"x_min":90,"x_max":853,"o":"m 90 694 l 332 694 l 332 450 l 611 450 l 611 694 l 853 694 l 853 0 l 611 0 l 611 244 l 332 244 l 332 0 l 90 0 l 90 694 z "},"о":{"ha":939,"x_min":63,"x_max":876,"o":"m 469 -14 q 306 9 381 -14 q 176 77 231 32 q 92 190 122 122 q 63 347 63 257 q 92 504 63 436 q 176 617 122 572 q 306 685 231 663 q 469 708 381 708 q 633 685 558 708 q 763 617 708 663 q 847 504 817 572 q 876 347 876 436 q 847 190 876 257 q 763 77 817 122 q 633 9 708 32 q 469 -14 558 -14 m 469 194 q 585 236 542 194 q 629 347 629 278 q 585 458 629 417 q 469 500 542 500 q 353 458 397 500 q 310 347 310 417 q 353 236 310 278 q 469 194 397 194 z "},"п":{"ha":950,"x_min":90,"x_max":860,"o":"m 90 694 l 860 694 l 860 0 l 618 0 l 618 489 l 332 489 l 332 0 l 90 0 l 90 694 z "},"р":{"ha":967,"x_min":90,"x_max":904,"o":"m 90 694 l 332 694 l 332 575 l 343 575 q 394 642 361 613 q 468 688 422 667 q 581 708 514 708 q 705 685 646 708 q 808 617 764 663 q 878 503 853 571 q 904 347 904 436 q 878 191 904 258 q 808 78 853 124 q 705 9 764 32 q 581 -14 646 -14 q 471 0 515 -14 q 397 31 426 14 q 342 76 363 50 l 332 76 l 332 -278 l 90 -278 l 90 694 m 494 197 q 615 239 572 197 q 657 347 657 281 q 615 456 657 414 q 494 497 572 497 q 374 456 415 497 q 332 347 332 414 q 376 238 332 278 q 494 197 419 197 z "},"с":{"ha":925,"x_min":63,"x_max":869,"o":"m 469 -14 q 306 9 381 -14 q 178 78 232 32 q 93 191 124 124 q 63 347 63 258 q 93 503 63 436 q 178 617 124 571 q 306 685 232 663 q 469 708 381 708 q 636 683 563 708 q 762 617 710 658 q 842 520 814 575 q 869 406 869 465 l 621 406 q 594 456 613 433 q 548 490 578 475 q 469 506 518 506 q 353 463 397 506 q 310 347 310 421 q 353 231 310 274 q 469 189 397 189 q 548 204 518 189 q 594 239 578 219 q 621 289 613 261 l 869 289 q 842 173 869 228 q 762 76 814 118 q 636 10 710 35 q 469 -14 563 -14 z "},"т":{"ha":789,"x_min":21,"x_max":768,"o":"m 274 489 l 21 489 l 21 694 l 768 694 l 768 489 l 515 489 l 515 0 l 274 0 l 274 489 z "},"у":{"ha":826,"x_min":-14,"x_max":840,"o":"m 217 -292 q 172 -289 193 -292 q 135 -283 151 -286 q 97 -275 115 -279 l 97 -74 q 118 -81 106 -78 q 142 -85 129 -83 q 175 -86 156 -86 q 258 -66 224 -86 q 313 7 292 -46 l 318 21 l -14 694 l 240 694 l 397 354 l 415 215 l 435 215 l 453 354 l 585 694 l 840 694 l 550 7 q 489 -115 521 -60 q 417 -210 457 -171 q 328 -270 378 -249 q 217 -292 279 -292 z "},"ф":{"ha":1163,"x_min":63,"x_max":1100,"o":"m 461 -14 q 296 15 369 -10 q 170 83 222 39 q 90 194 118 128 q 63 347 63 260 q 90 501 63 435 q 170 611 118 567 q 296 680 222 656 q 461 708 369 704 l 461 972 l 701 972 l 701 708 q 867 680 793 704 q 992 611 940 656 q 1072 501 1044 567 q 1100 347 1100 435 q 1072 194 1100 260 q 992 83 1044 128 q 867 15 940 39 q 701 -14 793 -10 l 701 -278 l 461 -278 l 461 -14 m 461 536 q 390 519 419 535 q 344 478 361 504 q 318 419 326 453 q 310 347 310 385 q 318 276 310 310 q 344 216 326 242 q 390 175 361 190 q 461 158 419 160 l 461 536 m 701 158 q 772 175 743 160 q 819 216 801 190 q 844 276 836 242 q 853 347 853 310 q 844 419 853 385 q 819 478 836 453 q 772 519 801 504 q 701 536 743 535 l 701 158 z "},"х":{"ha":814,"x_min":-7,"x_max":821,"o":"m 238 364 l 26 694 l 288 694 l 404 479 l 410 479 l 526 694 l 788 694 l 576 364 l 821 0 l 553 0 l 410 235 l 404 235 l 261 0 l -7 0 l 238 364 z "},"ц":{"ha":942,"x_min":90,"x_max":914,"o":"m 672 0 l 90 0 l 90 694 l 332 694 l 332 206 l 579 206 l 579 694 l 821 694 l 821 206 l 914 206 l 914 -153 l 672 -153 l 672 0 z "},"ч":{"ha":890,"x_min":76,"x_max":800,"o":"m 558 189 l 404 189 q 155 265 233 189 q 76 507 76 340 l 76 694 l 318 694 l 318 507 q 345 422 318 449 q 436 394 372 394 l 558 394 l 558 694 l 800 694 l 800 0 l 558 0 l 558 189 z "},"ш":{"ha":1206,"x_min":90,"x_max":1115,"o":"m 90 694 l 332 694 l 332 206 l 482 206 l 482 694 l 724 694 l 724 206 l 874 206 l 874 694 l 1115 694 l 1115 0 l 90 0 l 90 694 z "},"щ":{"ha":1236,"x_min":90,"x_max":1208,"o":"m 967 0 l 90 0 l 90 694 l 332 694 l 332 206 l 482 206 l 482 694 l 724 694 l 724 206 l 874 206 l 874 694 l 1115 694 l 1115 206 l 1208 206 l 1208 -153 l 967 -153 l 967 0 z "},"ъ":{"ha":926,"x_min":0,"x_max":871,"o":"m 197 528 l 0 528 l 0 694 l 439 694 l 439 489 l 560 489 q 799 425 728 489 q 871 244 871 361 q 854 141 871 186 q 800 65 838 96 q 703 17 763 33 q 560 0 644 0 l 197 0 l 197 528 m 519 167 q 602 187 581 167 q 624 244 624 207 q 602 302 624 282 q 519 322 581 322 l 439 322 l 439 167 l 519 167 z "},"ы":{"ha":1164,"x_min":90,"x_max":1074,"o":"m 90 694 l 332 694 l 332 489 l 428 489 q 667 425 596 489 q 739 244 739 361 q 722 141 739 186 q 668 65 706 96 q 572 17 631 33 q 428 0 513 0 l 90 0 l 90 694 m 388 167 q 470 187 449 167 q 492 244 492 207 q 470 302 492 282 q 388 322 449 322 l 332 322 l 332 167 l 388 167 m 832 694 l 1074 694 l 1074 0 l 832 0 l 832 694 z "},"ь":{"ha":819,"x_min":90,"x_max":764,"o":"m 90 694 l 332 694 l 332 489 l 453 489 q 692 425 621 489 q 764 244 764 361 q 747 141 764 186 q 693 65 731 96 q 597 17 656 33 q 453 0 538 0 l 90 0 l 90 694 m 413 167 q 495 187 474 167 q 517 244 517 207 q 495 302 517 282 q 413 322 474 322 l 332 322 l 332 167 l 413 167 z "},"э":{"ha":926,"x_min":56,"x_max":864,"o":"m 457 -14 q 291 10 365 -14 q 165 76 217 35 q 84 173 113 118 q 56 289 56 228 l 313 289 q 338 233 319 258 q 382 195 353 213 q 461 178 411 178 q 541 193 513 178 q 585 228 569 208 q 606 278 601 250 l 408 278 l 408 411 l 607 411 q 586 464 603 440 q 542 500 571 483 q 461 517 513 517 q 381 499 410 517 q 336 461 351 482 q 313 406 318 436 l 56 406 q 84 522 56 467 q 165 618 113 576 q 291 684 217 660 q 457 708 365 708 q 620 685 546 708 q 749 617 694 663 q 833 504 803 572 q 864 347 864 436 q 833 190 864 257 q 749 77 803 122 q 620 9 694 32 q 457 -14 546 -14 z "},"ю":{"ha":1210,"x_min":90,"x_max":1147,"o":"m 779 -14 q 672 -3 719 -14 q 590 26 625 8 q 528 67 554 44 q 483 115 501 90 q 426 246 440 172 l 332 246 l 332 0 l 90 0 l 90 694 l 332 694 l 332 446 l 426 446 q 481 576 439 519 q 524 625 499 601 q 587 667 550 649 q 671 697 624 686 q 779 708 718 708 q 940 682 871 708 q 1055 608 1008 656 q 1124 494 1101 561 q 1147 347 1147 428 q 1124 200 1147 267 q 1055 86 1101 133 q 940 13 1008 39 q 779 -14 871 -14 m 779 189 q 833 202 810 189 q 871 237 856 215 q 893 287 886 258 q 900 347 900 315 q 893 407 900 378 q 871 458 886 436 q 833 492 856 479 q 779 506 810 506 q 725 492 747 506 q 688 458 703 479 q 665 407 672 436 q 658 347 658 378 q 665 287 658 315 q 688 237 672 258 q 725 202 703 215 q 779 189 747 189 z "},"я":{"ha":876,"x_min":56,"x_max":786,"o":"m 203 235 l 203 238 q 138 282 165 254 q 92 347 113 306 q 72 450 72 388 q 90 553 72 507 q 144 630 107 599 q 241 678 182 661 q 383 694 300 694 l 786 694 l 786 0 l 544 0 l 544 206 l 433 206 l 308 0 l 56 0 l 203 235 m 544 372 l 544 528 l 422 528 q 342 507 365 528 q 319 450 319 486 q 342 393 319 414 q 422 372 365 372 l 544 372 z "},"ё":{"ha":938,"x_min":63,"x_max":875,"o":"m 471 -14 q 306 9 381 -14 q 176 77 231 32 q 92 190 122 122 q 63 347 63 257 q 92 504 63 436 q 176 617 122 572 q 306 685 231 663 q 469 708 381 708 q 631 685 557 708 q 760 617 706 663 q 844 504 814 572 q 875 347 875 436 q 874 331 875 339 q 872 315 874 322 q 871 300 871 307 l 315 300 q 352 195 317 238 q 471 153 388 153 q 533 163 508 153 q 572 188 557 174 q 600 224 589 203 l 858 224 q 800 104 846 157 q 752 60 781 82 q 683 22 724 39 q 590 -4 643 6 q 471 -14 538 -14 m 614 424 q 605 464 614 443 q 578 502 596 485 q 534 531 561 519 q 469 542 507 542 q 404 531 432 542 q 358 503 376 519 q 330 465 339 486 q 321 424 321 444 l 614 424 m 314 792 q 235 813 265 792 q 206 883 206 835 q 235 953 206 932 q 314 975 265 975 q 392 953 363 975 q 422 883 422 932 q 392 813 422 835 q 314 792 363 792 m 619 792 q 541 813 571 792 q 511 883 511 835 q 541 953 511 932 q 619 975 571 975 q 698 953 668 975 q 728 883 728 932 q 698 813 728 835 q 619 792 668 792 z "},"–":{"ha":1021,"x_min":69,"x_max":951,"o":"m 69 439 l 951 439 l 951 267 l 69 267 l 69 439 z "},"—":{"ha":1358,"x_min":69,"x_max":1289,"o":"m 69 439 l 1289 439 l 1289 267 l 69 267 l 69 439 z "},"“":{"ha":708,"x_min":49,"x_max":660,"o":"m 190 571 q 87 608 124 571 q 49 729 50 646 q 60 840 49 792 q 93 921 72 889 q 142 969 114 953 q 200 986 169 986 l 200 892 q 209 842 200 857 q 232 818 218 826 q 262 806 246 810 q 292 792 278 803 q 315 760 306 782 q 324 696 324 738 q 288 604 324 638 q 190 571 251 571 m 526 571 q 423 608 460 571 q 385 729 386 646 q 397 840 385 792 q 429 921 408 889 q 478 969 450 953 q 536 986 506 986 l 536 892 q 545 842 536 857 q 568 818 554 826 q 598 806 582 810 q 628 792 614 803 q 651 760 642 782 q 660 696 660 738 q 624 604 660 638 q 526 571 588 571 z "},"”":{"ha":708,"x_min":49,"x_max":660,"o":"m 172 665 q 163 715 172 699 q 140 738 154 731 q 110 750 126 746 q 81 765 94 754 q 58 797 67 776 q 49 861 49 818 q 85 953 49 919 q 182 986 121 986 q 285 949 249 986 q 324 828 322 911 q 312 717 324 765 q 279 636 300 668 q 231 588 258 604 q 172 571 203 571 l 172 665 m 508 665 q 499 715 508 699 q 476 738 490 731 q 447 750 463 746 q 417 765 431 754 q 394 797 403 776 q 385 861 385 818 q 421 953 385 919 q 518 986 457 986 q 622 949 585 986 q 660 828 658 911 q 648 717 660 765 q 615 636 636 668 q 567 588 594 604 q 508 571 539 571 l 508 665 z "},"„":{"ha":708,"x_min":49,"x_max":660,"o":"m 172 -83 q 163 -33 172 -50 q 140 -10 154 -17 q 110 2 126 -3 q 81 17 94 7 q 58 48 67 26 q 49 113 49 69 q 85 204 49 171 q 182 238 121 238 q 285 200 249 238 q 324 79 322 163 q 312 -32 324 17 q 279 -112 300 -81 q 231 -161 258 -144 q 172 -178 203 -178 l 172 -83 m 508 -83 q 499 -33 508 -50 q 476 -10 490 -17 q 447 2 463 -3 q 417 17 431 7 q 394 48 403 26 q 385 113 385 69 q 421 204 385 171 q 518 238 457 238 q 622 200 585 238 q 660 79 658 163 q 648 -32 660 17 q 615 -112 636 -81 q 567 -161 594 -144 q 508 -178 539 -178 l 508 -83 z "},"…":{"ha":1103,"x_min":49,"x_max":1054,"o":"m 186 -14 q 86 20 124 -14 q 49 115 49 54 q 86 210 49 176 q 186 244 124 244 q 286 210 249 244 q 324 115 324 176 q 286 20 324 54 q 186 -14 249 -14 m 551 -14 q 451 20 489 -14 q 414 115 414 54 q 451 210 414 176 q 551 244 489 244 q 651 210 614 244 q 689 115 689 176 q 651 20 689 54 q 551 -14 614 -14 m 917 -14 q 817 20 854 -14 q 779 115 779 54 q 817 210 779 176 q 917 244 854 244 q 1017 210 979 244 q 1054 115 1054 176 q 1017 20 1054 54 q 917 -14 979 -14 z "},"€":{"ha":1199,"x_min":35,"x_max":1129,"o":"m 632 -14 q 490 1 553 -14 q 379 38 428 15 q 294 91 331 61 q 232 153 258 121 q 146 319 171 226 l 35 319 l 35 451 l 125 451 q 124 461 124 456 l 124 486 l 124 511 q 125 521 124 517 l 35 521 l 35 653 l 146 653 q 232 819 171 746 q 294 881 258 850 q 379 934 331 911 q 490 972 428 957 q 632 986 553 986 q 836 956 744 986 q 992 873 928 926 q 1092 745 1057 819 q 1129 583 1128 671 l 851 583 q 840 631 849 601 q 806 688 831 660 q 740 738 782 717 q 629 758 697 758 q 535 742 572 758 q 474 706 497 725 q 432 653 447 682 l 660 653 l 660 521 l 392 521 q 390 511 390 517 l 390 486 l 390 460 q 392 451 390 454 l 660 451 l 660 319 l 432 319 q 474 267 447 290 q 535 231 497 247 q 629 214 572 214 q 740 235 697 214 q 806 284 782 256 q 840 342 831 313 q 851 389 849 371 l 1129 389 q 1092 226 1128 300 q 992 99 1057 153 q 836 16 928 46 q 632 -14 744 -14 z "},"₽":{"ha":1058,"x_min":49,"x_max":989,"o":"m 172 132 l 49 132 l 49 299 l 172 299 l 172 375 l 49 375 l 49 542 l 172 542 l 172 972 l 556 972 q 883 901 776 972 q 989 664 989 831 q 883 440 989 506 q 556 375 776 375 l 436 375 l 436 299 l 774 299 l 774 132 l 436 132 l 436 0 l 172 0 l 172 132 m 556 542 q 672 569 633 542 q 711 658 711 596 q 672 748 711 721 q 556 775 633 775 l 436 775 l 436 542 l 556 542 z "}}}
